<?xml version="1.0" standalone="no"?>
<!DOCTYPE svg PUBLIC "-//W3C//DTD SVG 20010904//EN"
 "http://www.w3.org/TR/2001/REC-SVG-20010904/DTD/svg10.dtd">
<svg version="1.0" xmlns="http://www.w3.org/2000/svg"
 width="900.000000pt" height="900.000000pt" viewBox="0 0 900.000000 900.000000"
 preserveAspectRatio="xMidYMid meet">

<g transform="translate(0.000000,900.000000) scale(0.100000,-0.100000)"
fill="#000000" stroke="none">
<path d="M6568 8842 l-23 -25 28 18 c15 9 27 13 27 7 0 -10 -37 -25 -57 -23
-6 1 -21 -12 -33 -30 -17 -22 -20 -33 -11 -42 6 -6 11 -21 11 -34 0 -13 5 -23
11 -23 5 0 7 -4 4 -10 -3 -5 -1 -10 4 -10 20 0 11 -46 -13 -70 -30 -27 -106
-45 -106 -24 0 10 -13 14 -40 14 -22 0 -40 -4 -40 -10 0 -5 -18 -10 -39 -10
-22 0 -43 5 -46 10 -3 6 -14 10 -23 10 -9 0 -31 14 -49 30 -30 29 -36 30 -120
30 -57 0 -98 5 -115 14 -48 25 -214 41 -222 21 -3 -6 -10 -3 -18 6 -28 34
-174 50 -276 30 -24 -5 -60 -5 -80 0 -43 10 -83 2 -61 -12 11 -7 10 -9 -3 -9
-10 0 -18 7 -18 15 0 10 -10 15 -30 15 -16 0 -30 -4 -30 -8 0 -5 -13 -7 -29
-4 -22 3 -30 0 -34 -15 -4 -16 -5 -16 -6 0 -1 19 4 18 -161 23 -149 4 -224 8
-337 18 -64 6 -93 6 -93 -2 0 -15 -94 -26 -119 -13 -11 7 -57 16 -102 22 -45
5 -91 14 -101 20 -19 10 -101 13 -205 6 -35 -2 -63 -1 -63 3 0 9 -215 4 -277
-6 -28 -4 -48 -2 -57 5 -9 8 -33 10 -64 6 -32 -3 -66 0 -94 9 -42 14 -229 24
-258 13 -8 -3 -71 -8 -139 -10 -69 -3 -128 -10 -134 -16 -6 -6 -26 -11 -44
-11 -22 0 -33 -5 -33 -14 0 -18 -31 -30 -41 -15 -14 23 -39 1 -39 -36 0 -25
-4 -35 -16 -35 -10 0 -14 -6 -10 -15 4 -10 -1 -15 -14 -15 -11 0 -20 -5 -20
-10 0 -6 6 -10 13 -8 20 4 67 -12 67 -22 0 -6 -9 -10 -21 -10 -11 0 -18 -4
-15 -9 4 -5 2 -11 -2 -13 -5 -1 -12 -33 -15 -70 -6 -68 -6 -68 19 -68 14 0 34
-9 46 -20 12 -11 28 -20 35 -20 25 0 13 -19 -19 -28 -33 -10 -84 -14 -166 -13
-29 0 -40 -3 -36 -11 5 -7 2 -8 -7 -2 -19 11 -40 14 -34 4 6 -10 -30 -20 -80
-21 -32 0 -36 -2 -20 -9 14 -6 6 -7 -25 -4 -26 3 -40 2 -33 -3 7 -5 -3 -9 -28
-9 -57 -2 -48 13 14 20 29 4 59 11 67 17 11 7 3 8 -24 3 -30 -5 -37 -4 -31 6
5 9 4 11 -4 6 -6 -4 -8 -12 -5 -18 5 -8 -6 -9 -34 -5 -24 3 -40 1 -36 -4 3 -5
-2 -6 -10 -3 -8 3 -23 1 -33 -5 -16 -9 -14 -10 12 -11 l30 0 -29 -15 c-15 -8
-38 -15 -50 -16 -11 0 -37 -7 -56 -15 -25 -10 -27 -13 -9 -9 14 2 84 15 155
27 l129 23 1995 0 c2104 0 2056 1 2278 -45 176 -37 396 -125 536 -214 31 -20
63 -33 69 -30 7 4 9 4 5 -1 -5 -5 9 -19 30 -33 148 -99 361 -317 473 -485 147
-220 225 -408 276 -662 16 -84 18 -226 20 -2225 l4 -2135 45 -24 c25 -14 56
-37 70 -53 l24 -30 26 32 c90 106 295 98 407 -16 l45 -45 -1 68 c0 37 0 576 1
1196 1 621 0 1132 -2 1135 -2 4 -7 381 -10 837 -4 457 -9 927 -12 1045 -4 118
-6 222 -6 230 0 46 -23 179 -48 275 -39 151 -105 337 -115 328 -4 -5 -5 -3 -1
4 4 7 -19 61 -50 120 -32 59 -66 125 -77 147 -11 21 -30 49 -42 61 -11 13 -27
36 -35 51 -8 15 -27 40 -42 56 -15 16 -32 41 -39 57 -9 19 -18 27 -28 23 -9
-3 -12 -1 -7 7 5 7 -3 20 -18 32 -15 11 -24 24 -21 28 2 5 -7 7 -21 5 -14 -1
-23 0 -20 3 3 3 1 15 -5 27 -9 19 -8 19 10 -3 12 -13 21 -19 21 -14 0 17 -89
95 -101 87 -8 -5 -9 -3 -4 5 8 14 -33 63 -47 55 -5 -3 -7 0 -6 7 4 16 -93 90
-106 81 -6 -3 -4 3 4 14 8 10 11 16 6 12 -7 -6 -27 7 -62 40 -8 7 -19 10 -25
6 -8 -4 -9 -3 -5 4 4 7 2 12 -4 12 -6 0 -8 5 -5 10 3 6 1 10 -4 10 -21 0 -92
58 -79 64 7 3 3 3 -9 0 -16 -4 -30 2 -46 18 -13 14 -42 31 -63 39 -24 10 -38
21 -36 30 2 8 1 11 -3 7 -4 -4 -25 4 -46 18 -21 13 -43 24 -47 24 -5 0 -22 10
-38 23 -16 12 -30 21 -31 20 -2 -1 -31 11 -65 27 -35 17 -69 30 -76 30 -7 0
-11 4 -7 9 3 6 -3 9 -12 9 -25 -2 -113 33 -113 44 0 5 -8 7 -19 3 -12 -3 -21
0 -25 10 -3 8 -11 15 -18 15 -9 0 -8 -3 2 -10 8 -5 10 -10 4 -10 -5 0 -15 5
-22 12 -7 7 -33 18 -60 26 -127 36 -199 52 -215 48 -9 -2 -15 -1 -13 3 3 4 -9
8 -27 8 -18 0 -69 2 -114 5 -78 5 -83 4 -105 -20z m-3635 -439 c-7 -2 -19 -2
-25 0 -7 3 -2 5 12 5 14 0 19 -2 13 -5z m105 0 c-10 -2 -26 -2 -35 0 -10 3 -2
5 17 5 19 0 27 -2 18 -5z m-95 -30 c-7 -2 -19 -2 -25 0 -7 3 -2 5 12 5 14 0
19 -2 13 -5z m-270 -50 c-7 -2 -21 -2 -30 0 -10 3 -4 5 12 5 17 0 24 -2 18 -5z
m-60 -10 c-7 -2 -21 -2 -30 0 -10 3 -4 5 12 5 17 0 24 -2 18 -5z m4834 -338
c0 -8 -4 -12 -9 -9 -5 4 -7 9 -4 12 3 3 -2 15 -11 26 -18 21 -18 21 3 3 11 -9
21 -24 21 -32z"/>
<path d="M2090 8690 c0 -5 14 -10 30 -10 17 0 30 5 30 10 0 6 -13 10 -30 10
-16 0 -30 -4 -30 -10z"/>
<path d="M2125 8240 c-11 -5 -75 -29 -142 -55 -68 -26 -125 -50 -128 -55 -3
-4 44 12 104 36 59 24 129 49 154 56 26 7 47 16 47 20 0 10 -9 9 -35 -2z"/>
<path d="M1820 8122 c0 -5 -11 -14 -25 -20 -32 -15 -38 -15 -29 0 4 7 3 8 -5
4 -6 -4 -8 -12 -5 -18 5 -8 1 -9 -10 -5 -10 4 -15 3 -11 -4 4 -5 -11 -17 -34
-26 -22 -8 -42 -21 -45 -28 -2 -7 36 10 85 38 49 27 89 53 89 58 0 5 -2 9 -5
9 -3 0 -5 -4 -5 -8z"/>
<path d="M1004 8093 c-9 -15 -14 -16 -26 -6 -12 11 -24 4 -69 -38 -30 -28 -67
-59 -83 -69 -35 -22 -106 -107 -106 -126 0 -8 -11 -19 -25 -24 -13 -5 -31 -24
-38 -42 -8 -18 -35 -57 -61 -85 -27 -29 -44 -53 -39 -53 4 0 0 -5 -9 -11 -10
-5 -18 -15 -18 -22 0 -7 -10 -24 -22 -37 -24 -27 -52 -79 -63 -117 -3 -13 -10
-23 -14 -23 -5 0 -11 -18 -15 -40 -3 -22 -11 -40 -17 -40 -8 0 -8 -5 1 -15 10
-12 9 -16 -4 -21 -9 -3 -16 -11 -16 -18 -1 -6 -9 -29 -20 -51 -11 -22 -19 -46
-20 -53 0 -7 -6 -15 -13 -18 -11 -4 -12 -13 -4 -43 9 -32 7 -43 -11 -72 -13
-21 -20 -51 -20 -79 0 -25 -5 -58 -11 -73 -13 -33 -15 -87 -3 -87 4 0 9 -18
11 -41 1 -26 -2 -38 -9 -34 -5 3 -11 16 -11 28 -1 20 -2 21 -6 2 -3 -11 -10
-23 -17 -27 -8 -6 -7 -8 2 -8 7 0 11 -4 8 -9 -6 -10 -11 -349 -6 -481 2 -52 5
-76 7 -52 5 47 23 58 23 13 0 -16 4 -31 8 -33 13 -5 23 -68 11 -68 -5 0 -5 -6
2 -13 11 -11 16 -10 31 5 10 10 18 25 18 34 0 8 5 12 11 8 6 -3 15 0 20 7 7
12 15 11 45 -6 20 -11 39 -25 41 -32 3 -7 16 -13 29 -13 17 0 24 -6 24 -19 0
-11 7 -26 15 -35 8 -8 15 -25 16 -38 0 -22 1 -22 9 -3 6 15 9 7 9 -30 1 -48 3
-52 41 -75 22 -14 40 -32 40 -40 0 -19 73 -67 78 -51 5 14 52 15 52 0 0 -6 7
-9 15 -5 9 3 15 0 15 -9 0 -11 -12 -15 -42 -16 -30 -2 -35 -3 -15 -6 19 -3 27
-10 27 -24 0 -26 18 -24 23 4 2 12 6 -176 8 -418 3 -341 5 -234 9 475 5 828 8
924 24 1010 38 200 146 469 250 623 26 38 44 73 40 78 -3 5 -1 8 4 7 14 -5 64
60 56 73 -4 7 -3 9 3 6 11 -7 80 72 75 86 -1 5 1 6 6 3 5 -3 37 24 73 60 35
36 92 88 127 116 34 27 59 55 55 60 -4 7 -1 8 6 3 7 -4 22 1 34 13 12 11 32
25 45 31 25 13 30 38 7 38 -12 0 -12 -3 -2 -16 9 -11 9 -13 0 -8 -14 9 -89
-20 -79 -30 3 -4 12 -1 18 5 7 7 17 12 22 12 6 -1 1 -9 -12 -20 -13 -10 -30
-16 -37 -13 -10 3 -15 -1 -15 -12 0 -10 -5 -13 -12 -9 -17 11 -59 14 -53 4 3
-5 12 -7 19 -4 20 8 30 -14 16 -32 -10 -11 -16 -11 -26 -3 -8 6 -11 16 -7 22
4 6 -4 8 -21 3 -17 -4 -34 -2 -42 5 -25 20 -149 -6 -197 -41 -22 -16 -44 -27
-49 -24 -4 3 -8 -5 -8 -17 0 -12 -2 -20 -5 -17 -3 3 -19 -7 -35 -23 -35 -36
-50 -37 -50 -4 0 14 -4 25 -10 25 -5 0 -10 9 -10 20 0 11 -4 20 -10 20 -16 0
-12 77 4 83 7 3 16 18 18 34 3 15 9 36 13 46 5 12 3 17 -9 17 -9 0 -16 5 -16
10 0 6 5 10 10 10 6 0 10 9 10 20 0 25 -31 27 -46 3z m401 -232 c3 -5 2 -12
-3 -15 -5 -3 -9 1 -9 9 0 17 3 19 12 6z m-465 -187 c0 -8 -4 -12 -10 -9 -5 3
-10 10 -10 16 0 5 5 9 10 9 6 0 10 -7 10 -16z m-651 -1321 c2 -2 -5 -3 -17 -3
-14 0 -22 6 -22 16 0 14 3 15 18 3 9 -7 19 -15 21 -16z"/>
<path d="M1570 8020 c-8 -5 -10 -10 -5 -10 6 0 17 5 25 10 8 5 11 10 5 10 -5
0 -17 -5 -25 -10z"/>
<path d="M1465 7921 c-6 -11 9 -23 19 -14 9 9 7 23 -3 23 -6 0 -12 -4 -16 -9z"/>
<path d="M2703 7660 c-586 -49 -1064 -429 -1204 -960 -53 -204 -53 -179 -54
-1385 0 -879 0 -974 5 -440 3 374 6 661 8 638 1 -24 7 -43 12 -43 6 0 10 -17
10 -38 0 -24 10 -53 27 -80 24 -37 32 -42 65 -42 27 0 38 -4 38 -15 0 -11 -11
-15 -40 -15 -22 0 -40 -5 -40 -10 0 -7 21 -10 51 -9 39 2 55 -2 64 -14 7 -9
20 -17 29 -17 9 0 16 -3 16 -8 0 -4 18 -18 40 -32 22 -14 40 -28 40 -32 0 -5
27 -8 60 -8 l60 0 0 -40 c0 -33 3 -40 20 -40 11 0 20 -3 20 -8 0 -4 18 -18 40
-32 22 -14 40 -28 40 -32 0 -5 18 -8 40 -8 29 0 40 -4 40 -15 0 -11 -11 -15
-40 -15 -22 0 -40 -5 -40 -10 0 -7 21 -10 51 -9 39 2 55 -2 64 -14 7 -9 20
-17 29 -17 9 0 16 -7 16 -15 0 -12 -16 -15 -80 -15 -47 0 -80 -4 -80 -10 0 -6
33 -10 80 -10 64 0 80 -3 80 -15 0 -8 -9 -15 -20 -15 -17 0 -20 -7 -20 -40 l0
-40 40 0 c40 0 40 0 40 -39 0 -33 -4 -40 -22 -44 -13 -3 29 -2 92 0 88 4 118
9 128 21 11 14 12 14 12 -1 0 -9 -4 -17 -10 -17 -5 0 -10 -7 -10 -15 0 -12
-15 -15 -75 -15 -43 0 -75 -4 -75 -10 0 -6 32 -10 75 -10 59 0 75 -3 75 -14 0
-10 -13 -16 -37 -19 l-38 -4 36 -1 c20 -1 41 -8 47 -15 6 -7 14 -55 17 -107 4
-52 10 -113 15 -135 5 -25 6 -9 2 45 -13 157 -6 439 12 552 33 204 91 387 182
571 30 60 51 114 47 120 -3 7 -3 9 1 5 5 -4 43 46 85 110 339 513 845 840
1437 928 146 22 433 22 574 0 354 -55 701 -206 975 -424 158 -126 341 -325
450 -489 26 -40 51 -70 55 -68 4 3 7 -1 6 -8 0 -6 31 -77 71 -157 242 -488
277 -1018 102 -1547 -46 -136 -144 -341 -223 -461 -72 -110 -193 -256 -294
-356 -50 -49 -88 -94 -85 -99 4 -6 1 -7 -6 -3 -15 10 -53 -23 -44 -37 3 -5 1
-7 -4 -4 -6 4 -22 -2 -35 -12 -13 -11 -57 -42 -96 -69 -39 -27 -69 -51 -67
-54 3 -3 -1 -5 -7 -5 -23 0 -88 -45 -81 -56 3 -5 1 -7 -5 -3 -14 9 -83 -25
-75 -37 3 -6 1 -7 -5 -3 -6 4 -37 -6 -69 -22 -32 -16 -81 -37 -110 -47 -29
-10 -49 -23 -46 -28 3 -6 1 -7 -6 -3 -10 6 -136 -28 -151 -41 -2 -2 2 -8 10
-13 9 -6 10 -10 3 -10 -6 0 -15 5 -18 10 -3 6 -14 10 -23 10 -15 0 -15 -2 -2
-11 11 -8 8 -9 -15 -5 -16 3 -55 -1 -85 -9 -36 -9 -42 -13 -17 -9 28 4 39 1
43 -11 8 -21 -5 -33 -16 -16 -6 11 -17 12 -50 3 -23 -6 -50 -8 -59 -5 -14 4
-14 3 -1 -6 13 -9 12 -11 -4 -11 -11 0 -17 -3 -14 -6 4 -3 27 2 52 10 26 9 50
16 53 16 15 0 -33 -29 -49 -30 -9 0 -19 -4 -23 -9 -3 -6 7 -6 27 0 42 12 57
11 38 -1 -12 -8 -11 -10 8 -10 14 0 22 -6 22 -16 0 -9 10 -25 22 -35 16 -15
17 -19 6 -19 -9 0 -19 -7 -22 -15 -8 -21 24 -32 38 -14 7 9 31 16 60 17 44 1
47 0 35 -15 -12 -14 -12 -16 1 -8 8 5 -2 -8 -23 -29 -44 -43 -53 -43 -32 -1
l15 30 -20 -24 c-13 -15 -18 -32 -15 -45 5 -19 5 -19 -5 -3 -6 9 -16 17 -23
17 -7 0 -5 -6 5 -16 15 -15 14 -19 -9 -53 -14 -20 -28 -35 -32 -34 -4 1 -7 -7
-7 -18 0 -10 1 -19 2 -19 1 0 12 17 25 38 29 48 85 108 127 134 26 16 31 23
20 30 -10 8 -10 9 3 5 8 -3 46 6 85 19 82 28 121 29 194 8 67 -19 80 -20 152
-5 47 10 67 9 120 -4 35 -9 71 -17 80 -18 9 -1 15 -4 13 -7 -1 -3 7 -13 20
-22 23 -17 24 -17 48 25 18 30 22 44 14 50 -8 6 -6 7 5 4 9 -3 24 3 35 15 55
62 168 76 260 34 53 -25 91 -70 114 -133 6 -19 18 -33 27 -33 65 0 204 -24
238 -41 23 -11 54 -38 69 -60 l28 -39 32 47 c47 70 117 131 193 166 54 25 78
31 141 31 51 1 92 -5 123 -17 41 -16 55 -17 102 -7 83 17 192 -8 266 -60 l28
-20 21 113 c12 61 26 144 33 182 8 50 12 593 15 1855 4 1810 2 1934 -32 2115
-62 321 -263 624 -536 807 -216 144 -425 215 -704 238 -141 11 -3421 11 -3562
0z m3929 -598 c166 -82 258 -254 231 -432 -21 -133 -109 -253 -233 -313 -59
-29 -74 -31 -160 -31 -113 0 -178 21 -255 85 -192 159 -207 434 -32 612 51 52
118 92 181 108 17 4 70 7 117 6 74 -3 96 -8 151 -35z m-4115 -1754 c-3 -8 -6
-5 -6 6 -1 11 2 17 5 13 3 -3 4 -12 1 -19z m-547 -228 c0 -6 -9 -10 -20 -10
-13 0 -20 7 -20 20 0 18 3 19 20 10 11 -6 20 -15 20 -20z m320 -320 c0 -5 9
-10 20 -10 11 0 20 -4 20 -10 0 -5 -18 -10 -40 -10 -33 0 -40 3 -40 20 0 13 7
20 20 20 11 0 20 -4 20 -10z m3237 -1945 c0 -8 -4 -12 -9 -9 -5 3 -6 10 -3 15
9 13 12 11 12 -6z m-377 -209 c-7 -7 -13 -7 -20 0 -6 6 -3 10 10 10 13 0 16
-4 10 -10z m-183 -12 c-3 -3 -12 -4 -19 -1 -8 3 -5 6 6 6 11 1 17 -2 13 -5z
m418 -112 c-3 -3 -11 0 -18 7 -9 10 -8 11 6 5 10 -3 15 -9 12 -12z m455 12 c0
-8 -19 -13 -24 -6 -3 5 1 9 9 9 8 0 15 -2 15 -3z m-659 -32 c-7 -2 -18 1 -23
6 -8 8 -4 9 13 5 13 -4 18 -8 10 -11z m342 1 c-7 -2 -19 -2 -25 0 -7 3 -2 5
12 5 14 0 19 -2 13 -5z m-368 -21 c-3 -3 -11 0 -18 7 -9 10 -8 11 6 5 10 -3
15 -9 12 -12z m290 -10 c-3 -3 -11 0 -18 7 -9 10 -8 11 6 5 10 -3 15 -9 12
-12z m328 -37 c-3 -9 -8 -14 -10 -11 -3 3 -2 9 2 15 9 16 15 13 8 -4z"/>
<path d="M311 7114 c0 -11 3 -14 6 -6 3 7 2 16 -1 19 -3 4 -6 -2 -5 -13z"/>
<path d="M232 6690 c0 -14 2 -19 5 -12 2 6 2 18 0 25 -3 6 -5 1 -5 -13z"/>
<path d="M386 6143 c-9 -10 -7 -73 3 -73 5 0 11 16 13 36 4 34 -3 50 -16 37z"/>
<path d="M332 6090 c0 -14 2 -19 5 -12 2 6 2 18 0 25 -3 6 -5 1 -5 -13z"/>
<path d="M526 5973 c-11 -11 -6 -23 9 -23 8 0 15 4 15 9 0 13 -16 22 -24 14z"/>
<path d="M4395 5830 c-3 -5 -25 -18 -48 -29 -66 -31 -327 -300 -327 -337 0 -4
-8 -17 -18 -28 -42 -49 -59 -187 -32 -270 33 -105 51 -159 59 -174 5 -9 17
-37 27 -62 10 -25 24 -52 31 -61 7 -8 13 -23 13 -31 0 -9 7 -21 15 -28 8 -7
15 -17 15 -23 0 -16 40 -102 106 -225 19 -35 34 -68 34 -74 0 -5 9 -21 20 -35
11 -14 20 -34 20 -43 0 -10 7 -20 15 -24 8 -3 15 -12 15 -19 0 -8 15 -39 33
-69 17 -29 41 -74 52 -98 11 -25 22 -47 26 -50 19 -16 115 -225 130 -285 22
-86 -12 -370 -47 -400 -7 -5 -16 -35 -22 -65 -5 -30 -11 -62 -13 -70 -6 -25
41 -12 79 21 18 16 37 29 42 29 12 0 290 276 290 288 0 5 18 28 40 53 21 24
42 54 45 67 3 13 15 37 27 52 19 26 20 39 16 139 -3 82 -9 115 -20 128 -9 10
-19 39 -23 65 -4 26 -13 53 -21 59 -8 6 -14 17 -14 24 0 7 -11 32 -24 56 -13
24 -27 55 -31 68 -4 13 -22 50 -41 82 -19 31 -34 64 -34 72 0 8 -7 20 -15 27
-8 7 -15 21 -15 32 0 11 -10 34 -22 50 -12 17 -33 54 -46 82 -14 28 -36 65
-49 82 -13 17 -23 35 -23 40 0 15 -44 99 -57 107 -6 4 -14 21 -18 37 -4 16
-11 32 -15 35 -5 3 -18 25 -29 48 -11 23 -25 49 -30 57 -17 29 -50 105 -56
133 -4 15 -11 30 -16 33 -5 3 -9 18 -9 33 0 15 -5 32 -10 37 -14 14 -14 317
-1 343 17 31 14 131 -3 131 -8 0 -18 -4 -21 -10z"/>
<path d="M5302 5557 c-73 -41 -292 -275 -292 -312 0 -5 -8 -17 -17 -28 -14
-15 -18 -36 -17 -98 0 -43 6 -84 11 -91 6 -7 16 -29 21 -48 33 -110 145 -361
183 -406 5 -7 27 -48 48 -91 21 -43 60 -118 87 -168 28 -49 69 -135 94 -190
38 -88 44 -111 48 -188 4 -75 1 -101 -22 -175 -50 -161 -50 -162 -38 -174 16
-16 105 54 227 179 140 142 205 238 205 300 0 61 -43 199 -94 306 -29 62 -56
122 -60 134 -4 11 -13 27 -21 33 -8 7 -15 23 -15 35 0 12 -7 28 -15 35 -8 6
-17 22 -21 33 -3 12 -12 29 -19 37 -7 8 -32 51 -55 95 -142 265 -186 368 -199
469 -9 64 -9 109 -1 169 6 45 13 99 15 120 4 31 2 37 -12 37 -10 -1 -28 -6
-41 -13z"/>
<path d="M2452 4260 c0 -14 2 -19 5 -12 2 6 2 18 0 25 -3 6 -5 1 -5 -13z"/>
<path d="M2462 4215 c0 -11 4 -31 8 -45 6 -20 8 -21 8 -5 0 11 -4 31 -8 45 -6
20 -8 21 -8 5z"/>
<path d="M2481 4124 c0 -11 3 -14 6 -6 3 7 2 16 -1 19 -3 4 -6 -2 -5 -13z"/>
<path d="M2491 4084 c0 -11 3 -14 6 -6 3 7 2 16 -1 19 -3 4 -6 -2 -5 -13z"/>
<path d="M2500 4046 c0 -8 4 -17 9 -20 5 -4 7 3 4 14 -6 23 -13 26 -13 6z"/>
<path d="M2550 3891 c0 -6 4 -13 10 -16 6 -3 7 1 4 9 -7 18 -14 21 -14 7z"/>
<path d="M2710 3570 c6 -11 13 -20 16 -20 2 0 0 9 -6 20 -6 11 -13 20 -16 20
-2 0 0 -9 6 -20z"/>
<path d="M2885 3320 c10 -11 20 -20 23 -20 3 0 -3 9 -13 20 -10 11 -20 20 -23
20 -3 0 3 -9 13 -20z"/>
<path d="M2935 3260 c10 -11 20 -20 23 -20 3 0 -3 9 -13 20 -10 11 -20 20 -23
20 -3 0 3 -9 13 -20z"/>
<path d="M2970 3226 c0 -2 8 -10 18 -17 15 -13 16 -12 3 4 -13 16 -21 21 -21
13z"/>
<path d="M3103 3092 c21 -21 34 -42 30 -47 -5 -4 -2 -5 5 0 10 5 4 17 -24 46
-21 22 -40 39 -43 39 -3 0 12 -17 32 -38z"/>
<path d="M953 3019 c-72 -12 -164 -51 -223 -94 -248 -182 -260 -490 -28 -727
40 -41 155 -136 255 -211 264 -199 328 -282 328 -422 0 -119 -61 -202 -192
-262 -82 -38 -194 -39 -273 -2 -116 54 -179 141 -188 259 -6 88 11 146 58 192
l38 39 -24 16 c-39 25 -111 29 -151 8 -40 -22 -86 -88 -109 -157 -25 -78 -16
-206 21 -281 108 -219 417 -313 712 -216 130 43 242 138 301 258 36 72 37 79
37 181 0 103 -1 108 -39 185 -52 106 -150 203 -383 379 -203 153 -252 202
-296 295 -25 54 -31 78 -31 140 -1 64 4 85 27 133 51 104 157 168 278 168 65
0 101 -14 138 -53 50 -55 46 -181 -9 -267 -43 -67 -40 -85 20 -115 27 -14 56
-25 65 -25 8 0 35 18 59 40 98 91 130 255 73 372 -67 138 -249 203 -464 167z"/>
<path d="M3329 2911 c13 -12 28 -21 34 -21 12 0 11 0 -28 24 l-30 17 24 -20z"/>
<path d="M1658 2874 c-5 -4 -8 -98 -8 -209 l0 -202 -109 -8 c-74 -4 -114 -11
-121 -20 -14 -17 -4 -53 23 -82 18 -21 30 -23 115 -23 l95 0 -6 -197 c-6 -246
7 -599 28 -718 21 -119 46 -164 107 -189 46 -19 50 -19 103 -2 61 19 160 103
231 196 l37 49 28 -45 c41 -64 107 -126 164 -154 44 -22 63 -25 165 -25 111 0
117 1 185 35 50 25 93 58 152 117 l82 82 29 -52 c40 -70 94 -122 161 -155 51
-24 66 -27 166 -27 100 0 115 3 166 28 82 40 143 90 198 162 l48 64 7 -101 c7
-115 19 -142 71 -164 44 -18 119 -18 138 0 8 8 17 46 21 88 11 119 121 633
144 675 6 9 12 -35 16 -118 20 -366 55 -542 119 -584 35 -23 88 -29 110 -13
13 10 25 49 42 143 45 244 136 568 169 603 9 9 10 -4 5 -60 -11 -107 -10 -352
1 -433 21 -145 55 -219 119 -262 39 -27 113 -31 164 -9 36 15 107 88 131 135
9 17 20 31 24 31 5 0 17 -19 29 -43 58 -119 154 -173 257 -143 65 19 136 79
188 160 l38 59 0 -89 0 -90 -123 -120 c-194 -190 -266 -306 -267 -432 0 -152
103 -247 270 -245 145 1 223 75 270 258 22 85 40 290 40 454 l0 116 74 92
c132 163 241 375 306 592 20 69 22 72 48 67 15 -2 49 -8 75 -11 40 -5 47 -9
42 -23 -4 -9 -18 -60 -32 -112 -22 -82 -26 -117 -27 -260 -1 -146 2 -173 22
-238 24 -77 71 -141 123 -168 16 -8 52 -14 82 -14 47 0 63 6 115 40 33 22 79
65 102 95 l43 56 29 -53 c37 -68 73 -106 123 -129 118 -55 244 11 323 170 21
42 42 87 46 101 7 22 9 18 17 -28 20 -121 71 -217 129 -247 83 -43 195 14 263
134 l32 56 8 -69 c8 -73 21 -97 69 -122 34 -17 122 -18 136 -1 5 6 17 62 27
122 20 132 97 482 127 580 l22 70 13 -190 c15 -218 44 -407 72 -470 21 -48 61
-75 109 -75 54 0 68 24 91 155 40 222 133 549 168 592 13 16 14 15 9 -17 -3
-19 -8 -118 -12 -220 -8 -223 7 -337 59 -440 36 -72 74 -104 138 -115 66 -11
142 33 196 113 43 64 105 233 118 324 7 44 5 49 -16 57 -13 5 -27 6 -31 2 -4
-3 -21 -51 -39 -106 -70 -221 -113 -280 -178 -245 -42 22 -61 134 -61 359 0
90 7 240 16 333 14 136 14 174 4 192 -34 65 -190 97 -230 48 -22 -27 -116
-308 -160 -477 -43 -166 -40 -159 -53 -146 -16 16 -27 359 -15 467 8 78 8 96
-6 123 -34 65 -156 95 -194 47 -37 -48 -102 -263 -152 -503 -17 -81 -32 -149
-35 -151 -17 -18 -9 384 11 551 7 58 -11 92 -61 113 -37 15 -132 19 -153 5
-11 -6 -11 -42 -3 -187 6 -98 11 -242 12 -319 2 -137 1 -142 -30 -215 -77
-184 -126 -239 -172 -193 -36 36 -50 115 -56 315 -5 147 -2 222 13 344 l18
157 -27 23 c-41 35 -128 55 -171 38 -12 -5 -16 -20 -16 -62 l0 -55 -57 61
c-66 69 -114 88 -197 77 -69 -9 -117 -36 -170 -97 -56 -65 -102 -170 -128
-298 -16 -78 -19 -121 -15 -240 l4 -145 -39 -57 c-47 -66 -75 -88 -117 -88
-59 0 -91 81 -91 228 0 112 15 197 61 354 26 86 39 148 35 163 -11 45 -46 57
-186 66 -175 10 -170 8 -170 76 0 49 -4 59 -34 89 -43 43 -90 46 -136 8 -83
-71 -90 -200 -13 -263 l36 -29 -18 -74 c-23 -95 -80 -258 -112 -322 -14 -28
-51 -89 -82 -136 l-56 -85 -8 160 c-9 174 -3 378 14 517 13 109 5 127 -71 151
-99 32 -130 19 -130 -53 0 -28 -2 -50 -5 -50 -3 0 -29 24 -58 53 -38 39 -65
57 -99 66 -129 36 -260 -48 -333 -213 -56 -126 -87 -341 -67 -461 9 -56 8 -65
-19 -130 -43 -101 -73 -137 -111 -133 -70 7 -92 93 -91 358 0 102 8 257 17
345 16 153 16 160 -2 185 -42 58 -160 89 -209 55 -37 -26 -112 -234 -178 -494
-14 -55 -30 -112 -36 -128 l-12 -28 -9 35 c-6 19 -11 156 -12 304 l-2 269 -27
23 c-63 54 -145 52 -183 -5 -25 -38 -103 -319 -144 -519 -37 -181 -45 -127
-31 206 13 307 14 300 -40 328 -29 14 -116 19 -158 7 -21 -5 -22 -10 -16 -47
3 -23 10 -160 15 -306 l8 -265 -41 -80 c-52 -103 -152 -205 -222 -229 -54 -18
-130 -21 -168 -7 -61 23 -147 135 -147 191 0 9 38 38 88 66 125 74 223 168
267 257 82 167 63 311 -50 389 -116 79 -299 55 -408 -55 -111 -111 -173 -378
-137 -592 7 -45 6 -53 -18 -85 -85 -113 -195 -180 -295 -180 -100 0 -166 50
-207 158 l-19 49 92 54 c125 74 245 191 288 283 61 131 50 254 -30 337 -85 87
-219 102 -347 39 -103 -50 -180 -158 -220 -305 -22 -84 -30 -271 -15 -356 l13
-68 -59 -76 c-94 -123 -164 -142 -200 -57 -20 47 -29 414 -18 705 l7 197 124
0 c111 0 126 2 144 20 11 11 20 27 20 36 0 19 -19 56 -34 66 -6 4 -64 8 -129
8 l-117 0 6 173 7 174 -38 29 c-31 23 -50 29 -104 32 -36 2 -69 0 -73 -4z
m880 -684 c11 -11 26 -37 31 -57 40 -144 -47 -312 -211 -412 l-38 -23 0 85 c0
156 45 327 102 393 35 40 82 46 116 14z m769 -2 c49 -53 52 -166 8 -266 -26
-58 -100 -140 -170 -191 -39 -28 -46 -30 -51 -16 -20 50 24 331 62 408 43 84
108 112 151 65z m2112 -33 c36 -31 47 -63 62 -184 17 -144 -10 -320 -67 -437
-44 -89 -79 -124 -132 -131 -35 -5 -44 -2 -67 22 -45 50 -60 122 -59 290 0
163 21 270 69 364 50 99 129 130 194 76z m1661 10 c38 -20 57 -56 69 -136 15
-90 13 -171 -5 -280 -36 -209 -115 -349 -197 -349 -42 0 -63 18 -89 76 -67
154 -30 512 67 644 44 60 97 75 155 45z m-1599 -1188 c-18 -268 -51 -357 -131
-357 -39 0 -81 30 -101 73 -35 78 -19 147 56 253 49 69 173 199 182 191 2 -3
0 -75 -6 -160z"/>
<path d="M4780 2576 c0 -9 39 -13 51 -5 10 6 4 9 -18 9 -18 0 -33 -2 -33 -4z"/>
<path d="M4218 2563 c6 -2 18 -2 25 0 6 3 1 5 -13 5 -14 0 -19 -2 -12 -5z"/>
<path d="M4710 2560 c0 -12 8 -12 35 0 18 8 17 9 -7 9 -16 1 -28 -3 -28 -9z"/>
<path d="M4618 2553 c18 -2 45 -2 60 0 15 2 0 4 -33 4 -33 0 -45 -2 -27 -4z"/>
<path d="M4795 2490 c-3 -5 -1 -10 4 -10 6 0 11 5 11 10 0 6 -2 10 -4 10 -3 0
-8 -4 -11 -10z"/>
<path d="M4655 2470 c-13 -6 -15 -9 -5 -9 8 0 22 4 30 9 18 12 2 12 -25 0z"/>
<path d="M3738 2463 c6 -2 18 -2 25 0 6 3 1 5 -13 5 -14 0 -19 -2 -12 -5z"/>
<path d="M4751 2421 c59 -38 83 -62 98 -100 8 -17 17 -28 23 -25 5 3 6 -5 2
-19 -3 -14 -2 -33 4 -42 7 -13 9 -3 9 36 -1 30 1 59 4 64 2 6 0 11 -5 12 -5 1
-12 7 -17 14 -4 8 -11 10 -15 6 -4 -4 1 -14 12 -21 15 -12 17 -17 7 -27 -11
-11 -13 -11 -13 0 0 7 -10 27 -22 44 -13 18 -22 39 -21 47 2 9 0 10 -3 3 -3
-7 -10 -13 -15 -13 -6 0 -7 5 -3 12 4 6 3 8 -3 5 -6 -4 -22 2 -36 13 -14 11
-31 20 -38 20 -7 0 7 -13 32 -29z"/>
<path d="M4325 2410 c10 -11 20 -20 23 -20 3 0 -3 9 -13 20 -10 11 -20 20 -23
20 -3 0 3 -9 13 -20z"/>
<path d="M4410 2415 c-7 -8 -17 -12 -23 -8 -6 4 -7 1 -3 -6 6 -9 13 -8 27 5
10 9 19 19 19 21 0 7 -8 2 -20 -12z"/>
<path d="M4870 2415 c-8 -9 -8 -15 -2 -15 12 0 26 19 19 26 -2 2 -10 -2 -17
-11z"/>
<path d="M3969 2403 c-13 -16 -12 -17 4 -4 16 13 21 21 13 21 -2 0 -10 -8 -17
-17z"/>
<path d="M4970 2410 c0 -5 5 -10 10 -10 6 0 10 5 10 10 0 6 -4 10 -10 10 -5 0
-10 -4 -10 -10z"/>
<path d="M4910 2275 c0 -8 2 -15 4 -15 2 0 6 7 10 15 3 8 1 15 -4 15 -6 0 -10
-7 -10 -15z"/>
<path d="M4886 2185 c-9 -26 -7 -32 5 -12 6 10 9 21 6 23 -2 3 -7 -2 -11 -11z"/>
<path d="M8375 1256 c-37 -77 -125 -115 -225 -96 -57 11 -80 21 -129 58 -19
14 -31 19 -27 11 4 -8 1 -6 -7 3 -13 16 -15 14 -26 -21 -6 -21 -18 -44 -26
-51 -8 -7 -13 -16 -10 -20 3 -5 0 -12 -6 -16 -8 -4 -9 -3 -5 4 10 16 5 15 -35
-5 -25 -13 -58 -18 -124 -18 -79 0 -96 3 -138 27 -43 25 -51 26 -70 14 -12 -8
-41 -20 -64 -27 -23 -6 -40 -16 -37 -20 3 -5 -2 -6 -10 -3 -19 7 -88 -44 -79
-59 3 -6 1 -7 -5 -3 -15 9 -64 -23 -55 -37 3 -6 1 -7 -6 -3 -6 4 -24 -2 -41
-14 -16 -11 -75 -43 -132 -70 -57 -27 -99 -50 -94 -50 5 0 2 -7 -5 -17 -13
-15 -12 -15 8 -5 14 8 24 9 28 2 3 -5 12 -10 18 -10 9 0 9 2 -1 8 -8 6 -1 13
22 25 34 16 35 15 31 -4 -3 -13 3 -23 18 -29 l22 -9 -22 0 c-12 -1 -23 4 -25
10 -7 22 -48 -9 -48 -36 0 -24 2 -25 70 -25 l70 0 0 -29 c0 -29 0 -29 80 -36
58 -5 80 -11 80 -21 0 -8 9 -14 20 -14 18 0 20 -7 20 -80 l0 -80 35 0 c22 0
43 -8 55 -20 12 -12 25 -18 31 -15 5 4 16 1 24 -5 8 -7 15 -9 15 -5 0 4 7 1
17 -6 9 -8 17 -14 17 -14 33 16 86 51 86 57 0 4 6 8 13 8 8 0 19 12 25 26 9
19 17 24 33 19 21 -7 52 11 43 26 -3 5 1 9 9 9 7 0 23 10 35 23 18 19 19 26 9
37 -10 12 -9 12 5 1 15 -11 22 -9 50 10 44 30 106 97 99 106 -3 3 -1 3 6 -1 6
-3 14 -2 18 4 4 6 10 8 15 5 5 -3 12 0 16 6 5 8 2 10 -7 5 -8 -4 -6 -1 5 8 10
8 15 20 10 27 -4 7 -3 10 3 6 15 -9 115 101 106 116 -4 8 -1 8 9 -1 17 -14 30
-4 34 25 1 7 8 19 16 27 7 7 21 25 32 40 10 14 23 23 28 20 4 -3 7 -2 6 3 -6
16 42 84 54 77 7 -4 8 -3 4 4 -4 7 -2 12 5 12 7 0 4 6 -6 14 -11 8 -24 12 -29
9 -5 -4 -6 -1 -2 6 6 9 11 9 23 -1 12 -10 17 -9 25 5 5 10 13 15 17 13 4 -3 5
9 3 26 -3 23 -1 29 8 23 9 -6 9 -2 0 16 -7 13 -14 25 -15 27 -2 2 -11 -13 -20
-32z m-1044 -249 c-10 -9 -11 -8 -5 6 3 10 9 15 12 12 3 -3 0 -11 -7 -18z
m-86 -67 c4 -6 -1 -7 -11 -3 -11 4 -15 3 -10 -5 3 -6 2 -13 -3 -16 -7 -5 -8
11 -2 32 2 6 21 1 26 -8z m-50 -28 c-3 -3 -11 0 -18 7 -9 10 -8 11 6 5 10 -3
15 -9 12 -12z m-110 -41 c-16 -10 -34 -16 -39 -13 -5 3 4 11 20 18 43 19 53
16 19 -5z m862 -146 c0 -8 -4 -12 -9 -9 -5 3 -6 10 -3 15 9 13 12 11 12 -6z
m-594 -2 c-13 -2 -33 -2 -45 0 -13 2 -3 4 22 4 25 0 35 -2 23 -4z m295 -231
c9 -6 6 -12 -12 -20 -23 -10 -26 -6 -17 26 2 5 16 1 29 -6z"/>
<path d="M6980 849 c-14 -6 -61 -21 -105 -34 -76 -22 -78 -23 -33 -22 25 1 44
5 42 9 -3 4 2 5 10 2 9 -3 16 -2 16 4 0 5 20 15 44 21 25 6 48 15 51 21 7 12
7 12 -25 -1z"/>
<path d="M7090 850 c-8 -5 -10 -10 -5 -10 6 0 17 5 25 10 8 5 11 10 5 10 -5 0
-17 -5 -25 -10z"/>
<path d="M6897 781 c-24 -16 -26 -19 -11 -25 9 -4 19 -4 22 -1 3 3 -1 5 -9 5
-8 0 -4 8 11 20 32 25 24 26 -13 1z"/>
<path d="M6740 780 c-20 -6 -21 -8 -5 -8 11 0 29 3 40 8 25 11 -1 11 -35 0z"/>
<path d="M6808 773 c7 -3 16 -2 19 1 4 3 -2 6 -13 5 -11 0 -14 -3 -6 -6z"/>
<path d="M6935 770 c-3 -5 -1 -10 4 -10 6 0 11 5 11 10 0 6 -2 10 -4 10 -3 0
-8 -4 -11 -10z"/>
<path d="M6668 763 c6 -2 18 -2 25 0 6 3 1 5 -13 5 -14 0 -19 -2 -12 -5z"/>
<path d="M6588 753 c6 -2 18 -2 25 0 6 3 1 5 -13 5 -14 0 -19 -2 -12 -5z"/>
<path d="M6493 743 c15 -2 37 -2 50 0 12 2 0 4 -28 4 -27 0 -38 -2 -22 -4z"/>
<path d="M6177 733 c18 -2 50 -2 70 0 21 2 7 4 -32 4 -38 0 -55 -2 -38 -4z"/>
<path d="M6318 733 c17 -2 47 -2 65 0 17 2 3 4 -33 4 -36 0 -50 -2 -32 -4z"/>
<path d="M7185 660 c-3 -5 1 -10 10 -10 9 0 13 5 10 10 -3 6 -8 10 -10 10 -2
0 -7 -4 -10 -10z"/>
<path d="M7380 500 c-10 -6 -11 -12 -5 -19 6 -6 14 -4 22 4 15 17 3 27 -17 15z"/>
<path d="M7490 455 c0 -11 40 -24 55 -19 13 6 14 8 3 15 -14 9 -58 12 -58 4z"/>
<path d="M7455 420 c-2 -4 11 -6 31 -4 29 2 33 0 23 -12 -8 -10 -8 -14 0 -14
6 0 11 5 11 11 0 5 6 7 13 3 9 -5 9 -4 -1 7 -14 15 -69 21 -77 9z"/>
<path d="M7456 392 c-2 -4 4 -8 14 -8 10 0 16 4 14 8 -3 4 -9 8 -14 8 -5 0
-11 -4 -14 -8z"/>
</g>
</svg>
